<svg width="315" height="259" xmlns="http://www.w3.org/2000/svg" xmlns:xlink="http://www.w3.org/1999/xlink" overflow="hidden"><defs><clipPath id="clip0"><rect x="595" y="208" width="315" height="259"/></clipPath><clipPath id="clip1"><rect x="596" y="209" width="313" height="257"/></clipPath><clipPath id="clip2"><rect x="596" y="208" width="313" height="258"/></clipPath></defs><g clip-path="url(#clip0)" transform="translate(-595 -208)"><g clip-path="url(#clip1)"><g clip-path="url(#clip2)"><path d="M295.195 460.992C291.061 458.725 291.261 463.992 291.461 357.527L291.661 260.729 293.061 258.862C295.061 256.129 298.795 255.329 301.195 257.062 302.195 257.795 303.528 259.462 304.128 260.729 305.261 262.862 305.328 268.862 305.328 358.327 305.328 419.392 305.061 454.525 304.661 456.058 303.395 460.592 298.795 462.992 295.195 460.992Z" fill="#0D265D" transform="matrix(1 0 0 -1.00003 372.005 704.546)"/><path d="M264.929 414.326C261.995 412.326 261.995 412.193 262.129 357.794L262.329 305.861 264.195 304.261C267.795 301.195 271.395 301.661 274.262 305.528 275.662 307.394 275.662 307.928 275.862 355.86 275.995 382.526 275.862 405.926 275.662 407.926 275.062 412.659 272.662 415.326 268.862 415.326 267.462 415.326 265.662 414.859 264.929 414.326Z" fill="#0D265D" transform="matrix(1 0 0 -1.00003 372.005 704.546)"/><path d="M322.261 414.059C321.128 413.326 319.861 411.793 319.394 410.593 318.861 409.059 318.661 393.993 318.661 358.727 318.661 302.795 318.394 305.595 323.528 303.061 325.727 301.995 326.527 301.928 328.594 302.595 329.927 302.995 331.794 304.061 332.727 305.061L334.327 306.794 334.527 358.06C334.661 403.126 334.527 409.593 333.661 411.326 331.661 415.193 326.194 416.459 322.261 414.059Z" fill="#0D265D" transform="matrix(1 0 0 -1.00003 372.005 704.546)"/><path d="M376.26 413.059 373.993 410.793 373.993 359.327C373.993 302.128 373.727 305.328 378.46 303.061 381.26 301.728 382.06 301.728 384.86 303.061 389.593 305.328 389.326 302.128 389.326 359.327L389.326 410.793 387.06 413.059C385.126 414.993 384.326 415.326 381.66 415.326 378.993 415.326 378.193 414.993 376.26 413.059Z" fill="#0D265D" transform="matrix(1 0 0 -1.00003 372.005 704.546)"/><path d="M435.326 413.993C434.526 413.193 433.659 411.859 433.326 410.926 432.926 409.926 432.659 389.326 432.659 358.46 432.659 309.928 432.726 307.594 433.926 305.595 436.725 300.995 442.859 301.195 445.392 305.995 446.592 308.261 446.659 310.528 446.525 359.86L446.325 411.459 444.125 413.393C441.459 415.793 437.392 416.059 435.326 413.993Z" fill="#0D265D" transform="matrix(1 0 0 -1.00003 372.005 704.546)"/><path d="M352.194 389.326C351.394 388.993 350.194 387.926 349.527 386.86 348.46 385.193 348.327 382.86 348.127 361.327 347.994 348.327 348.127 336.327 348.327 334.727 348.927 330.927 351.66 327.994 354.66 327.994 357.46 327.994 360.26 329.527 361.194 331.661 362.26 333.994 362.327 383.86 361.26 386.193 359.86 389.26 355.66 390.726 352.194 389.326Z" fill="#0D265D" transform="matrix(1 0 0 -1.00003 372.005 704.546)"/><path d="M407.193 388.926C403.393 386.926 403.326 386.326 403.326 358.994 403.326 331.461 403.393 331.061 407.326 328.994 409.793 327.727 412.193 327.727 414.659 328.994 418.726 331.127 418.659 330.461 418.659 358.994 418.659 387.526 418.726 386.86 414.659 388.993 412.259 390.26 409.526 390.26 407.193 388.926Z" fill="#0D265D" transform="matrix(1 0 0 -1.00003 372.005 704.546)"/><path d="M464.658 388.66C463.858 387.86 462.992 386.526 462.658 385.593 462.258 384.593 461.992 373.393 461.992 359.26 461.992 331.661 462.125 330.861 466.258 328.927 469.392 327.394 472.458 328.261 474.458 331.261 475.991 333.527 475.991 333.661 475.991 358.794 475.991 385.66 475.791 387.66 472.792 389.26 470.458 390.46 466.125 390.126 464.658 388.66Z" fill="#0D265D" transform="matrix(1 0 0 -1.00003 372.005 704.546)"/><path d="M240.929 378.727C240.129 378.393 238.862 377.26 238.062 376.26 236.729 374.593 236.662 373.793 236.662 359.194 236.662 342.594 236.929 340.994 240.329 339.461 243.262 338.127 245.329 338.527 247.729 340.927L249.996 343.194 249.996 358.927 249.996 374.66 248.196 376.66C246.196 378.793 243.196 379.66 240.929 378.727Z" fill="#0D265D" transform="matrix(1 0 0 -1.00003 372.005 704.546)"/><path d="M492.258 378.727C491.458 378.393 490.191 377.26 489.391 376.26 488.058 374.593 487.991 373.793 487.991 359.194 487.991 342.594 488.258 340.994 491.658 339.461 494.591 338.127 496.658 338.527 499.058 340.927L501.324 343.194 501.324 358.927 501.324 374.66 499.524 376.66C497.524 378.793 494.524 379.66 492.258 378.727Z" fill="#0D265D" transform="matrix(1 0 0 -1.00003 372.005 704.546)"/></g></g></g></svg>